# Rhino

o object_1
v -7 0 7
v 7 0 7
v 7 45 7
v -7 45 7
v 7 0 7
v 7 0 -7
v 7 45 -7
v 7 45 7
v 7 0 -7
v -7 0 -7
v -7 45 -7
v 7 45 -7
v -7 0 -7
v -7 0 7
v -7 45 7
v -7 45 -7
v 7 0 7
v -7 0 7
v -7 0 -7
v -7 0 -7
v 7 0 -7
v 7 0 7
v 7 45 7
v -7 45 -7
v -7 45 7
v -7 45 -7
v 7 45 7
v 7 45 -7
vt 0 0
vt 0.25 0
vt 0.25 0.80821854
vt 0 0.80821854
vt 0.25 0
vt 0.5 0
vt 0.5 0.80821854
vt 0.25 0.80821854
vt 0.5 0
vt 0.75 0
vt 0.75 0.80821854
vt 0.5 0.80821854
vt 0.75 0
vt 1 0
vt 1 0.80821854
vt 0.75 0.80821854
vt 0.25 1
vt 0 1
vt 0 0.80821931
vt 0 0.80821931
vt 0.25 0.80821931
vt 0.25 1
vt 1 0.80821931
vt 0.75 1
vt 0.75 0.80821931
vt 0.75 1
vt 1 0.80821931
vt 1 1
vn 0 0 1
vn 0 0 1
vn 0 0 1
vn 0 0 1
vn 1 0 0
vn 1 0 0
vn 1 0 0
vn 1 0 0
vn 0 0 -1
vn 0 0 -1
vn 0 0 -1
vn 0 0 -1
vn -1 0 0
vn -1 0 0
vn -1 0 0
vn -1 0 0
vn 0 -1 0
vn 0 -1 0
vn 0 -1 0
vn 0 -1 0
vn 0 -1 0
vn 0 -1 0
vn 0 1 0
vn 0 1 0
vn 0 1 0
vn 0 1 0
vn 0 1 0
vn 0 1 0
f 1/1/1 2/2/2 3/3/3 4/4/4
f 5/5/5 6/6/6 7/7/7 8/8/8
f 9/9/9 10/10/10 11/11/11 12/12/12
f 13/13/13 14/14/14 15/15/15 16/16/16
f 17/17/17 18/18/18 19/19/19
f 20/20/20 21/21/21 22/22/22
f 23/23/23 24/24/24 25/25/25
f 26/26/26 27/27/27 28/28/28
